OpenSim_Sub02_CSStiffKnee_LCS.mot
version=1
nRows=78
nColumns=11
inDegrees=no
endheader
time	Bot_Shank	2nd_Bot_Shank	2nd_Top_Shank	Top_Shank	Bot_Thigh	Med_Thigh	Top_Thigh	BNOx	BNOy	BNOZ
0	9227.45615542	9782.14799466	11336.06266246	11221.64750705	12866.77180721	13678.22091479	13728.49084595	217.06000811	-77.25000694	129.69009724
0.01000000	9226.66642586	9781.93330778	11334.09355921	11220.54215071	12864.26584219	13675.32114542	13728.75225528	217.06001091	-77.25000738	129.69010339
0.02000000	9225.73838801	9781.66956754	11331.81227541	11219.28706044	12861.67553438	13672.27384243	13729.01648978	217.06001306	-77.25000752	129.69010530
0.03000000	9224.71317377	9781.37149466	11329.33774841	11217.93353538	12859.09215732	13669.21603490	13729.27190682	217.06001427	-77.25000729	129.69010207
0.04000000	9223.63191499	9781.05380989	11326.78891556	11216.53287465	12856.60698453	13666.28475193	13729.50686381	217.06001424	-77.25000663	129.69009280
0.05000000	9222.53574355	9780.73123395	11324.28471420	11215.13637739	12854.31128955	13663.61702262	13729.70971811	217.06001266	-77.25000547	129.69007662
0.06000000	9221.46579133	9780.41848756	11321.94408170	11213.79534274	12852.29634589	13661.34987605	13729.86882712	217.06000924	-77.25000376	129.69005261
0.07000000	9220.46319020	9780.13029146	11319.88595540	11212.56106983	12850.65342710	13659.62034133	13729.97254823	217.06000368	-77.25000142	129.69001990
0.08000000	9219.56808371	9779.88096358	11318.22575016	11211.48363847	12849.47088790	13658.56059580	13730.00969094	217.05999570	-77.24999841	129.68997768
0.09000000	9218.79788418	9779.67555734	11316.99786336	11210.58508431	12848.76995094	13658.19122672	13729.97946376	217.05998559	-77.24999481	129.68992739
0.10000000	9218.14727262	9779.50986171	11316.15567496	11209.85939881	12848.50470674	13658.42123127	13729.89147418	217.05997419	-77.24999090	129.68987265
0.11000000	9217.60994176	9779.37926283	11315.64904240	11209.29935410	12848.62632702	13659.15475486	13729.75578180	217.05996235	-77.24998694	129.68981722
0.12000000	9217.17958431	9779.27914685	11315.42782312	11208.89772234	12849.08598354	13660.29594294	13729.58244625	217.05995095	-77.24998319	129.68976483
0.13000000	9216.84989299	9779.20489992	11315.44187457	11208.64727565	12849.83484803	13661.74894092	13729.38152714	217.05994084	-77.24997993	129.68971921
0.14000000	9216.61456052	9779.15190818	11315.64105420	11208.54078619	12850.82409221	13663.41789423	13729.16308408	217.05993290	-77.24997743	129.68968412
0.15000000	9216.46727961	9779.11555780	11315.97521944	11208.57102610	12852.00488784	13665.20694831	13728.93717669	217.05992798	-77.24997594	129.68966328
0.16000000	9216.40174298	9779.09123491	11316.39422775	11208.73076752	12853.32840664	13667.02024857	13728.71386459	217.05992695	-77.24997573	129.68966043
0.17000000	9216.41164336	9779.07432567	11316.84793656	11209.01278260	12854.74582035	13668.76194044	13728.50320739	217.05993066	-77.24997708	129.68967933
0.18000000	9216.49067345	9779.06021623	11317.28620333	11209.40984347	12856.20830071	13670.33616936	13728.31526471	217.05994000	-77.24998025	129.68972370
0.19000000	9216.63252598	9779.04429272	11317.65888549	11209.91472229	12857.66701945	13671.64708074	13728.16009616	217.05995581	-77.24998551	129.68979728
0.20000000	9216.83089366	9779.02194131	11317.91584049	11210.52019119	12859.07314831	13672.59882003	13728.04776136	217.05997896	-77.24999313	129.68990382
0.21000000	9217.07946561	9778.98859475	11318.00732552	11211.21894934	12860.37799737	13673.09631167	13727.98823219	217.06001030	-77.25000335	129.69004694
0.22000000	9217.37165268	9778.94329209	11317.91452530	11211.99804978	12861.54358061	13673.10475414	13727.98469319	217.06004893	-77.25001591	129.69022258
0.23000000	9217.70039404	9778.89118528	11317.67104893	11212.83497495	12862.55005580	13672.69151460	13728.02882380	217.06009106	-77.25002955	129.69041356
0.24000000	9218.05858314	9778.83801839	11317.31558361	11213.70628026	12863.37933824	13671.93385677	13728.11118904	217.06013257	-77.25004298	129.69060144
0.25000000	9218.43911345	9778.78953552	11316.88681652	11214.58852109	12864.01334324	13670.90904439	13728.22235393	217.06016938	-77.25005487	129.69076779
0.26000000	9218.83487845	9778.75148075	11316.42343486	11215.45825283	12864.43398608	13669.69434119	13728.35288350	217.06019740	-77.25006390	129.69089417
0.27000000	9219.23877161	9778.72959814	11315.96412583	11216.29203088	12864.62318208	13668.36701091	13728.49334275	217.06021252	-77.25006876	129.69096213
0.28000000	9219.64368638	9778.72963179	11315.54757661	11217.06641064	12864.56284651	13667.00431728	13728.63429670	217.06021065	-77.25006812	129.69095325
0.29000000	9220.04251623	9778.75732577	11315.21247441	11217.75794749	12864.23489468	13665.68352404	13728.76631038	217.06018771	-77.25006068	129.69084908
0.30000000	9220.42815465	9778.81842416	11314.99750641	11218.34319683	12863.62124189	13664.48189493	13728.87994880	217.06013958	-77.25004511	129.69063119
0.31000000	9220.79349508	9778.91867105	11314.94135981	11218.79871404	12862.70380343	13663.47669367	13728.96577697	217.06006219	-77.25002009	129.69028114
0.32000000	9221.13155152	9779.06366382	11315.08201316	11219.10151426	12861.46564887	13662.74392845	13729.01451861	217.05995162	-77.24998437	129.68978133
0.33000000	9221.44002289	9779.25329698	11315.42989622	11219.24648455	12859.93471974	13662.31079779	13729.02306695	217.05981121	-77.24993904	129.68914693
0.34000000	9221.72269399	9779.48005685	11315.95965193	11219.25172825	12858.19724791	13662.14109473	13728.99632957	217.05965376	-77.24988820	129.68843563
0.35000000	9221.98375637	9779.73593461	11316.64353154	11219.13690031	12856.34336085	13662.19437482	13728.93974970	217.05949267	-77.24983620	129.68770800
0.36000000	9222.22740160	9780.01292146	11317.45378629	11218.92165566	12854.46318604	13662.43019361	13728.85877055	217.05934136	-77.24978736	129.68702459
0.37000000	9222.45782120	9780.30300861	11318.36266744	11218.62564923	12852.64685099	13662.80810665	13728.75883534	217.05921323	-77.24974601	129.68644594
0.38000000	9222.67920673	9780.59818723	11319.34242622	11218.26853596	12850.98448316	13663.28766948	13728.64538729	217.05912169	-77.24971647	129.68603261
0.39000000	9222.89574974	9780.89044854	11320.36531388	11217.86997079	12849.56621005	13663.82843766	13728.52386961	217.05908016	-77.24970308	129.68584515
0.40000000	9223.11164178	9781.17178373	11321.40358167	11217.44960865	12848.48215914	13664.38996674	13728.39972553	217.05910204	-77.24971015	129.68594412
0.41000000	9223.33107439	9781.43418400	11322.42948083	11217.02710448	12847.82245792	13664.93181225	13728.27839826	217.05920075	-77.24974202	129.68639006
0.42000000	9223.55823912	9781.66964053	11323.41526262	11216.62211321	12847.67723387	13665.41352976	13728.16533102	217.05938969	-77.24980301	129.68724352
0.43000000	9223.79732752	9781.87014454	11324.33317826	11216.25428978	12848.13661449	13665.79467481	13728.06596702	217.05968229	-77.24989745	129.68856506
0.44000000	9224.05250681	9782.02769998	11325.15552457	11215.94324331	12849.29045728	13666.03492699	13727.98573857	217.06009184	-77.25002964	129.69041480
0.45000000	9224.32278668	9782.13701917	11325.86425387	11215.69886856	12851.17138850	13666.12026390	13727.92776485	217.06061135	-77.25019732	129.69276108
0.46000000	9224.59566969	9782.19885704	11326.46286134	11215.50938638	12853.68434379	13666.09533745	13727.89000409	217.06118847	-77.25038359	129.69536751
0.47000000	9224.85710144	9782.21478614	11326.95775701	11215.36008496	12856.71698144	13666.01273856	13727.86971626	217.06176472	-77.25056957	129.69796997
0.48000000	9225.09302749	9782.18637903	11327.35535095	11215.23625249	12860.15695974	13665.92505814	13727.86416129	217.06228161	-77.25073640	129.70030436
0.49000000	9225.28939343	9782.11520826	11327.66205319	11215.12317718	12863.89193697	13665.88488714	13727.87059914	217.06268068	-77.25086519	129.70210658
0.50000000	9225.43214484	9782.00284638	11327.88427379	11215.00614723	12867.80957142	13665.94481646	13727.88628975	217.06290342	-77.25093708	129.70311252
0.51000000	9225.50722728	9781.85086593	11328.02842278	11214.87045083	12871.79752137	13666.15743704	13727.90849307	217.06289137	-77.25093319	129.70305807
0.52000000	9225.50058635	9781.66083948	11328.10091022	11214.70137618	12875.74344511	13666.57533979	13727.93446905	217.06258604	-77.25083464	129.70167912
0.53000000	9225.39816762	9781.43433957	11328.10814616	11214.48421148	12879.53500091	13667.25111564	13727.96147763	217.06192896	-77.25062257	129.69871157
0.54000000	9225.18591667	9781.17293875	11328.05654063	11214.20424493	12883.05984708	13668.23735552	13727.98677876	217.06086164	-77.25027809	129.69389132
0.55000000	9224.85029316	9780.87829332	11327.95251242	11213.84716515	12886.20681564	13669.58509538	13728.00766888	217.05932786	-77.24978173	129.68696447
0.56000000	9224.39774140	9780.55531527	11327.80281913	11213.41422735	12888.91036800	13671.28492211	13728.02286291	217.05735932	-77.24909023	129.67807422
0.57000000	9223.86066651	9780.21314585	11327.61465858	11212.92690829	12891.16423976	13673.24889711	13728.03291845	217.05510197	-77.24812949	129.66787962
0.58000000	9223.27320861	9779.86120895	11327.39525801	11212.40803614	12892.96612790	13675.38383376	13728.03851624	217.05270936	-77.24682336	129.65707417
0.59000000	9222.66950782	9779.50892847	11327.15184465	11211.88043910	12894.31372943	13677.59654549	13728.04033703	217.05033506	-77.24509564	129.64635140
0.60000000	9222.08370425	9779.16572831	11326.89164574	11211.36694536	12895.20474132	13679.79384568	13728.03906156	217.04813262	-77.24287019	129.63640482
0.61000000	9221.54993803	9778.84103235	11326.62188850	11210.89038310	12895.63686057	13681.88254774	13728.03537057	217.04625562	-77.24007083	129.62792795
0.62000000	9221.10234926	9778.54426449	11326.34980018	11210.47358052	12895.60778416	13683.76946507	13728.02994481	217.04485760	-77.23662140	129.62161430
0.63000000	9220.77507808	9778.28484863	11326.08260799	11210.13936580	12895.11520909	13685.36141107	13728.02346503	217.04409215	-77.23244572	129.61815738
0.64000000	9220.60226459	9778.07220867	11325.82753919	11209.91056714	12894.15683234	13686.56519914	13728.01661197	217.04411281	-77.22746763	129.61825071
0.65000000	9220.61804892	9777.91576849	11325.59182099	11209.81001271	12892.73035090	13687.28764269	13728.01006636	217.04507316	-77.22161097	129.62258781
0.66000000	9220.85657118	9777.82495200	11325.38268064	11209.86053072	12890.83346176	13687.43555512	13728.00450896	217.04712675	-77.21479955	129.63186219
0.67000000	9221.35197149	9777.80918308	11325.20734537	11210.08494934	12888.46386192	13686.91574982	13728.00062052	217.05042715	-77.20695722	129.64676737
0.68000000	9222.13838997	9777.87788564	11325.07304241	11210.50609677	12885.61924835	13685.63504020	13727.99908176	217.05512792	-77.19800781	129.66799686
0.69000000	9223.24959436	9778.04043734	11324.98696884	11211.14664289	12882.29765567	13683.50083833	13728.00056948	217.06138212	-77.18787574	129.69623858
0.70000000	9224.64040739	9778.29641592	11324.94992982	11211.99569708	12878.56869313	13680.54747348	13728.00491902	217.06923576	-77.17660972	129.73099317
0.71000000	9226.08951512	9778.62353421	11324.94846930	11212.96749076	12874.66166245	13677.09244400	13728.01008842	217.07849602	-77.16453582	129.76911233
0.72000000	9227.35177112	9778.99654655	11324.96720157	11213.96612390	12870.82747281	13673.49156286	13728.01378169	217.08893776	-77.15201761	129.80708933
0.73000000	9228.18202898	9779.39020729	11324.99074095	11214.89569645	12867.31703337	13670.10064303	13728.01370286	217.10033583	-77.13941869	129.84141746
0.74000000	9228.33514230	9779.77927078	11325.00370172	11215.66030837	12864.38125332	13667.27549748	13728.00755595	217.11246511	-77.12710262	129.86858998
0.75000000	9227.57242818	9780.13864979	11324.99059029	11216.16589207	12862.26956270	13665.36717882	13727.99317408	217.12510471	-77.11542175	129.88517990
0.76000000	9225.90647323	9780.44941573	11324.93171854	11216.38961646	12861.17389105	13664.54168071	13727.97340914	217.13819899	-77.10429134	129.89085994
0.77000000	9223.67627199	9780.70064029	11324.80194949	11216.40118920	12861.21147268	13664.72459867	13727.95763259	217.15190700	-77.09305887	129.88932944
